REM MD5 7a41b3dc932c103bbbe3be98c74954f9
FILE "Shadow Gunner - The Robot Wars (Europe) (En,Fr,De,Es,It).bin" BINARY
  TRACK 01 MODE2/2352
    INDEX 01 00:00:00
  TRACK 02 AUDIO
    INDEX 00 04:27:48
    INDEX 01 04:29:48
  TRACK 03 AUDIO
    INDEX 00 07:36:03
    INDEX 01 07:38:03
  TRACK 04 AUDIO
    INDEX 00 10:55:02
    INDEX 01 10:57:02
  TRACK 05 AUDIO
    INDEX 00 13:37:40
    INDEX 01 13:39:40
  TRACK 06 AUDIO
    INDEX 00 17:52:67
    INDEX 01 17:54:67
REM LEADOUT 22:54:67
